<svg width="1000" height="1000" xmlns="http://www.w3.org/2000/svg">


    <g transform="scale(1.6) translate(90, 80) rotate(45)">
        <path d="
            M0,0 H150 V10 Q150,30 170,30 H180
            M150,0 V-10 Q150,-30 170,-30 H180
            
            M185,0 
            Q185,50 200,70 H450 
            Q460,70 460,80 V100 Q460,110 470,110 H480 Q490,110 490,100 V-100
            
            M185,0 
            Q185,-50 200,-70 H450 
            Q460,-70 460,-80 V-100 Q460,-110 470,-110 H480 Q490,-110 490,-100 
            
            M490,40
            H600 Q610,40 610,50 V80 Q610,90 620,90 H630 Q640,90 640,80 V-80
    
            M490,-40        
            H600 Q610,-40 610,-50 V-80 Q610,-90 620,-90 H630 Q640,-90 640,-80
"
              fill="none"
              stroke="#C4C4C4"
              stroke-linecap="round"
              stroke-linejoin="bevel"
              stroke-width="20"
        />

        <!--            Q350,-50 350,-40 -->

        <path d="
            M360,-50     
            L270,50
            
            
            H470
            V-50
"
              fill="#B998F3"
        />
        <g transform="translate(-10) rotate(-45)">
            <path transform=""
                  d="
                    M0,10
                    Q50,50 50,100
                    M0,10
                    Q-50,50 -50,100
                    Q-50,150 0,150
                    Q50,150 50,100
"
                  fill="none"
                  stroke="#C4C4C4"
                  stroke-linecap="round"
                  stroke-linejoin="bevel"
                  stroke-width="20"
            />
            <path transform="scale(0.65) translate(0,53)"
                  d="
                    M0,0
                    Q50,50 50,100
                    M0,0
                    Q-50,50 -50,100
                    Q-50,150 0,150
                    Q50,150 50,100
"
                  fill="#B998F3"
                  stroke="none"
                  stroke-linecap="round"
                  stroke-linejoin="bevel"
                  stroke-width="20"
            />
        </g>


        <path>

        </path>

    </g>


</svg>